<?xml version="1.0" encoding="utf-8"?>
<!-- Generator: Adobe Illustrator 16.0.0, SVG Export Plug-In . SVG Version: 6.00 Build 0)  -->
<!DOCTYPE svg PUBLIC "-//W3C//DTD SVG 1.0//EN" "http://www.w3.org/TR/2001/REC-SVG-20010904/DTD/svg10.dtd">
<svg version="1.0" id="Layer_1" xmlns="http://www.w3.org/2000/svg" xmlns:xlink="http://www.w3.org/1999/xlink" x="0px" y="0px"
	 width="100px" height="100px" viewBox="0 0 100 100" enable-background="new 0 0 100 100" xml:space="preserve">
<path fill="#496FD9" d="M83.685,61.843l-10.352-5.176V50H80l-5-20h1.667c3.665,0,6.666-3,6.666-6.667v-6.667C83.333,13,80.332,10,76.667,10H23.333
	c-3.667,0-6.667,3-6.667,6.667v6.667c0,3.667,3,6.667,6.667,6.667H25l-5,20h6.666v6.667l-10.352,5.176
	c-1.641,0.82-2.981,2.991-2.981,4.824v16.666c0,1.833,1.501,3.334,3.333,3.334h10.933C28.758,88.646,30.885,90,33.333,90h33.334
	c2.447,0,4.576-1.354,5.735-3.333h10.931c1.833,0,3.334-1.501,3.334-3.334V66.667C86.667,64.834,85.325,62.663,83.685,61.843z
	 M26.666,80H20V67.454l6.666-3.333V80z M40,23.333v-6.667h20v6.667H40z M23.333,23.333v-6.667h10v6.667H23.333z M66.667,83.333
	H33.333V50H40v6.667h5V50h10v6.667h5V50h6.667V83.333z M60,43.333v-6.667h-5v6.667H45v-6.667h-5v6.667H28.538L31.871,30h36.257
	l3.334,13.333H60z M66.667,23.333v-6.667h10v6.667H66.667z M80,80h-6.667V64.121L80,67.454V80z"/>
<path fill="#496FD9" d="M58.333,61.667H41.666c-1.832,0-3.333,1.5-3.333,3.333v10c0,1.833,1.501,3.333,3.333,3.333h16.667
	c1.833,0,3.334-1.5,3.334-3.333V65C61.667,63.167,60.166,61.667,58.333,61.667z M56.667,73.333H43.333v-6.666h13.334V73.333z"/>
</svg>
